<?xml version="1.0" encoding="UTF-8"?>
<svg width="55px" height="50px" viewBox="0 0 49 77" version="1.1" xmlns="http://www.w3.org/2000/svg" xmlns:xlink="http://www.w3.org/1999/xlink">
    <!-- Generator: Sketch 58 (84663) - https://sketch.com -->
    <title>Group</title>
    <desc>Created with Sketch.</desc>
    <g id="Page-1" stroke="none" stroke-width="1" fill="none" fill-rule="evenodd">
        <g id="Group" transform="translate(-40.000000, -24.000000)">
            <path d="M82.2835004,37.224 C82.2835004,39.7320125 81.7390059,41.7614922 80.6500004,43.3125 C79.560995,44.8635078 77.9935106,45.639 75.9475004,45.639 C74.0994912,45.639 72.4495077,44.9460069 70.9975004,43.56 C71.921505,42.8999967 72.6309979,41.9430063 73.1260004,40.689 C73.6210029,39.4349937 73.8685004,38.1480066 73.8685004,36.828 C73.8685004,34.7819898 73.208507,33.0990066 71.8885004,31.779 C70.5684938,30.4589934 68.5555139,29.799 65.8495004,29.799 C62.8794856,29.799 60.734507,30.6239918 59.4145004,32.274 C58.0944938,33.9240082 57.4345004,36.1349861 57.4345004,38.907 C57.4345004,42.1410162 58.2099927,44.7809898 59.7610004,46.827 C61.3120082,48.8730102 63.2424889,50.7044919 65.5525004,52.3215 C67.605844,53.7588405 69.8025662,55.1309773 72.1427195,56.4379428 L73.0270004,56.925 C75.7000138,58.3770073 78.1914889,60.0929901 80.5015004,62.073 C82.811512,64.0530099 84.7419927,66.445486 86.2930004,69.2505 C87.8440082,72.055514 88.6195004,75.6359782 88.6195004,79.992 C88.6195004,83.6880185 88.0090065,86.8559868 86.7880004,89.496 C85.5669943,92.1360132 83.900511,94.2974916 81.7885004,95.9805 C79.6764899,97.6635084 77.1685149,98.8844962 74.2645004,99.6435 C71.3604859,100.402504 68.1925176,100.782 64.7605004,100.782 C61.7244852,100.782 58.7380151,100.468503 55.8010004,99.8415 C52.8639857,99.2144969 50.2570118,98.1915071 47.9800004,96.7725 C45.702989,95.3534929 43.8715073,93.4725117 42.4855004,91.1295 C41.0994935,88.7864883 40.4065004,85.9320168 40.4065004,82.566 C40.4065004,80.3219888 40.7199973,78.2760092 41.3470004,76.428 C41.9740035,74.5799908 42.831995,73.0290063 43.9210004,71.775 C45.0100059,70.5209937 46.2804932,69.5475035 47.7325004,68.8545 C49.1845077,68.1614965 50.7024925,67.815 52.2865004,67.815 C53.0785044,67.815 53.9364958,67.913999 54.8605004,68.112 C55.784505,68.310001 56.7084958,68.6564975 57.6325004,69.1515 C58.556505,69.6465025 59.4144965,70.3229957 60.2065004,71.181 C60.9985044,72.0390043 61.6254981,73.0949937 62.0875004,74.349 C60.8994945,74.349 59.7115064,74.4809987 58.5235004,74.745 C57.3354945,75.0090013 56.2630052,75.4709967 55.3060004,76.131 C54.3489956,76.7910033 53.5735034,77.6984942 52.9795004,78.8535 C52.3854974,80.0085058 52.0885004,81.4769911 52.0885004,83.259 C52.0885004,86.6910172 53.1444899,89.1494926 55.2565004,90.6345 C57.368511,92.1195074 60.0084846,92.862 63.1765004,92.862 C66.3445163,92.862 68.7864918,92.1030076 70.5025004,90.585 C72.218509,89.0669924 73.0765004,86.4600185 73.0765004,82.764 C73.0765004,79.3319828 72.3670075,76.4280119 70.9480004,74.052 C69.5289933,71.6759881 67.7305113,69.5970089 65.5525004,67.815 C63.6467409,66.2557422 61.6273122,64.7849337 59.4941676,63.4025409 L58.5730004,62.8155 C56.097988,61.2644922 53.7715113,59.5815091 51.5935004,57.7665 C49.4154895,55.9514909 47.6170075,53.8230122 46.1980004,51.381 C44.7789933,48.9389878 44.0695004,45.9360178 44.0695004,42.372 C44.0695004,36.6299713 45.9834813,32.257515 49.8115004,29.2545 C53.6395196,26.251485 58.8534674,24.75 65.4535004,24.75 L65.8486214,24.7544 C66.7600084,24.7734665 68.0307923,24.8544993 69.6610004,24.9975 C71.5420098,25.1625008 73.422991,25.6574959 75.3040004,26.4825 C77.1850098,27.3075041 78.8184935,28.5614916 80.2045004,30.2445 C81.5905073,31.9275084 82.2835004,34.2539851 82.2835004,37.224 Z" id="S" fill="#2A2A2A" fill-rule="nonzero"></path>
            <rect id="Rectangle" x="0" y="0" width="124" height="124"></rect>
        </g>
    </g>
</svg>