<?xml version="1.0" encoding="iso-8859-1"?>
<!-- Generator: Adobe Illustrator 18.1.1, SVG Export Plug-In . SVG Version: 6.00 Build 0)  -->
<svg version="1.1" id="Capa_1" xmlns="http://www.w3.org/2000/svg" xmlns:xlink="http://www.w3.org/1999/xlink" x="0px" y="0px"
	 viewBox="0 0 493.894 493.894" style="fill:lightgray; enable-background:new 0 0 493.894 493.894;" xml:space="preserve">
<g>
	<g id="Icons_20_">
		<g>
			<path d="M418.152,0H203.408c-12.427,0-24.325,4.953-33.101,13.755L42.654,142.01c-8.715,8.754-13.602,20.597-13.602,32.944
				v272.243c0,25.789,20.916,46.697,46.705,46.697h342.395c25.788,0,46.69-20.908,46.69-46.697v-400.5
				C464.842,20.91,443.94,0,418.152,0z M431.914,447.197c0,7.597-6.175,13.769-13.763,13.769H75.757
				c-7.605,0-13.781-6.172-13.781-13.769V184.238h131.322c12.088,0,21.928-9.839,21.928-21.939V32.927h202.926
				c7.587,0,13.763,6.172,13.763,13.77v400.5H431.914z"/>
			<path d="M339.277,254.455H154.646c-13.632,0-24.695,11.054-24.695,24.695s11.063,24.695,24.695,24.695h184.631
				c13.636,0,24.695-11.054,24.695-24.695S352.912,254.455,339.277,254.455z"/>
			<path d="M339.277,172.139h-69.388c-13.635,0-24.694,11.054-24.694,24.694c0,13.642,11.059,24.695,24.694,24.695h69.388
				c13.636,0,24.695-11.053,24.695-24.695C363.971,183.193,352.912,172.139,339.277,172.139z"/>
			<path d="M339.277,89.825h-69.388c-13.635,0-24.694,11.05-24.694,24.695c0,13.641,11.059,24.694,24.694,24.694h69.388
				c13.636,0,24.695-11.054,24.695-24.694C363.971,100.876,352.912,89.825,339.277,89.825z"/>
			<path d="M339.277,347.421H154.646c-13.632,0-24.695,11.053-24.695,24.694s11.063,24.695,24.695,24.695h184.631
				c13.636,0,24.695-11.054,24.695-24.695S352.912,347.421,339.277,347.421z"/>
		</g>
	</g>
</g>
</svg>
