<?xml version="1.0" encoding="iso-8859-1"?>
<!-- Generator: Adobe Illustrator 19.0.0, SVG Export Plug-In . SVG Version: 6.00 Build 0)  -->
<svg version="1.1" id="Layer_1" xmlns="http://www.w3.org/2000/svg" xmlns:xlink="http://www.w3.org/1999/xlink" x="0px" y="0px"
	 viewBox="0 0 437.716 437.716" style="fill: grey; enable-background:new 0 0 437.716 437.716;" xml:space="preserve">
<g id="XMLID_7_">
	<path id="XMLID_8_" d="M436.599,179.224c-2.297-5.615-7.75-9.294-13.816-9.321l-51.272-0.229
		c-10.809-33.509-32.542-63.264-62.947-83.777c-34.538-23.302-76.159-32.201-117.196-25.057
		c-40.917,7.123-76.992,29.424-101.578,62.794c-4.914,6.669-3.491,16.06,3.179,20.974c6.669,4.915,16.061,3.491,20.974-3.179
		c41.573-56.427,119.689-69.896,177.844-30.663c21.853,14.744,38.195,35.36,47.768,58.765l-37.897-0.169c-0.024,0-0.045,0-0.067,0
		c-6.04,0-11.494,3.624-13.832,9.198c-2.347,5.595-1.093,12.052,3.179,16.361l60.294,60.835c0.038,0.039,0.081,0.071,0.119,0.109
		c0.105,0.104,0.219,0.198,0.327,0.299c0.247,0.23,0.495,0.461,0.756,0.673c0.115,0.094,0.239,0.177,0.357,0.268
		c0.268,0.205,0.536,0.41,0.815,0.595c0.123,0.081,0.253,0.15,0.378,0.228c0.292,0.181,0.583,0.361,0.886,0.522
		c0.111,0.059,0.229,0.107,0.343,0.164c0.332,0.164,0.665,0.326,1.007,0.465c0.087,0.035,0.179,0.063,0.267,0.097
		c0.382,0.147,0.767,0.285,1.16,0.401c0.066,0.02,0.136,0.033,0.202,0.052c0.422,0.118,0.848,0.222,1.28,0.302
		c0.017,0.003,0.032,0.009,0.049,0.012c0.08,0.015,0.159,0.02,0.239,0.033c0.367,0.061,0.734,0.118,1.106,0.151
		c0.081,0.008,0.162,0.007,0.243,0.014c0.35,0.026,0.699,0.055,1.053,0.057c0.022,0,0.044,0,0.066,0
		c0.318,0,0.634-0.026,0.949-0.047c0.137-0.008,0.275-0.008,0.411-0.02c0.255-0.023,0.505-0.065,0.757-0.101
		c0.207-0.029,0.414-0.054,0.619-0.092c0.245-0.045,0.486-0.106,0.729-0.163c0.202-0.048,0.404-0.094,0.604-0.151
		c0.246-0.069,0.488-0.149,0.73-0.231c0.185-0.063,0.369-0.126,0.551-0.196c0.248-0.095,0.493-0.197,0.736-0.305
		c0.165-0.073,0.326-0.15,0.488-0.229c0.249-0.122,0.496-0.247,0.738-0.382c0.143-0.08,0.283-0.167,0.424-0.252
		c0.248-0.149,0.495-0.299,0.734-0.462c0.121-0.083,0.235-0.174,0.354-0.26c0.608-0.443,1.195-0.918,1.735-1.454l60.832-60.294
		C437.583,191.285,438.896,184.839,436.599,179.224z"/>
	<path id="XMLID_9_" d="M344.741,293.12c-6.668-4.914-16.059-3.492-20.974,3.177c-41.576,56.417-119.69,69.882-177.834,30.651
		c-21.849-14.741-38.19-35.354-47.763-58.753l37.888,0.169c0.022,0,0.045,0,0.067,0c0.008-0.001,0.013,0,0.02,0
		c8.284,0,15-6.716,15-15c0-4.354-1.854-8.273-4.816-11.014l-59.838-60.383c-0.038-0.038-0.08-0.071-0.119-0.108
		c-0.117-0.115-0.243-0.221-0.364-0.333c-0.235-0.217-0.468-0.436-0.715-0.637c-0.14-0.114-0.291-0.216-0.435-0.325
		c-0.243-0.183-0.482-0.369-0.734-0.536c-0.16-0.107-0.33-0.199-0.495-0.299c-0.253-0.154-0.503-0.311-0.763-0.45
		c-0.159-0.084-0.327-0.155-0.489-0.234c-0.283-0.137-0.564-0.276-0.855-0.395c-0.139-0.057-0.285-0.102-0.427-0.155
		c-0.328-0.123-0.657-0.244-0.994-0.344c-0.121-0.036-0.246-0.061-0.369-0.094c-0.365-0.099-0.732-0.191-1.106-0.261
		c-0.03-0.005-0.057-0.015-0.087-0.02c-0.11-0.02-0.219-0.026-0.33-0.043c-0.35-0.056-0.699-0.108-1.054-0.139
		c-0.2-0.018-0.398-0.022-0.598-0.032c-0.219-0.011-0.436-0.035-0.655-0.036c-0.022,0-0.045,0-0.067,0
		c-0.057,0-0.113,0.008-0.17,0.008c-0.251,0.003-0.498,0.022-0.747,0.037c-0.236,0.015-0.472,0.024-0.706,0.05
		c-0.277,0.03-0.549,0.077-0.822,0.122c-0.205,0.034-0.412,0.063-0.615,0.105c-0.279,0.058-0.553,0.133-0.827,0.207
		c-0.195,0.052-0.391,0.1-0.584,0.16c-0.265,0.083-0.524,0.182-0.783,0.279c-0.196,0.073-0.394,0.142-0.587,0.224
		c-0.245,0.104-0.481,0.222-0.72,0.338c-0.198,0.097-0.398,0.189-0.592,0.294c-0.228,0.124-0.446,0.261-0.667,0.396
		c-0.191,0.117-0.386,0.23-0.572,0.356c-0.223,0.15-0.435,0.315-0.649,0.477c-0.17,0.128-0.342,0.25-0.506,0.386
		c-0.234,0.193-0.455,0.401-0.677,0.608c-0.109,0.102-0.227,0.194-0.334,0.299l-0.149,0.147c-0.008,0.008-0.017,0.016-0.025,0.025
		L4.441,242.168c-4.309,4.271-5.621,10.717-3.325,16.332c2.297,5.615,7.75,9.294,13.817,9.322l51.278,0.229
		c10.811,33.504,32.542,63.255,62.942,83.766c26.76,18.055,57.768,27.463,89.465,27.463c9.21,0,18.484-0.796,27.723-2.403
		c40.914-7.121,76.987-29.417,101.575-62.783C352.832,307.425,351.41,298.035,344.741,293.12z"/>
</g>
</svg>
