
<svg version="1.1" xmlns="http://www.w3.org/2000/svg" xmlns:xlink="http://www.w3.org/1999/xlink" x="0px" y="0px" viewBox="0 0 1000 1000" enable-background="new 0 0 1000 1000" xml:space="preserve">
  <g>
    <path d="M988.3,218.3c-2.8-6.6-8.4-11.5-15.3-13.3L543.5,94.4c-11.1-2.8-22.4,2.9-26.6,13.4l-75.7,186.4c-1.5,3.6-1.7,7.2-1.3,10.8l-58.7,13.7l-1.3-1.9c-2.3-3.1-5.5-5.6-9-7.2L41.8,164c-9.3-4.1-20.2-1.5-26.7,6.4c-6.4,7.8-6.9,19.1-1,27.4l116.7,165.9v314.7c0,7.8,4.1,15.1,10.8,19.2l333.3,205.4c3.7,2.1,7.7,3.4,11.9,3.4c2.7,0,5.5-0.5,8.1-1.4L856,766.6c8.8-3.5,14.5-11.8,14.5-21.2V435.5l116.2-197C990.5,232.4,991,224.9,988.3,218.3z M828.5,417.9c-2.1,3.5-3.1,7.5-3.1,11.5v300.2L489.2,858.4L176.1,665.7V356.6c0-4.7-1.4-9.3-4.1-13L98.1,238.5l249,110.2l68.3,91.3l-169.4-77.8c-11.4-5.3-24.8-0.2-30,11.1c-5.2,11.5-0.2,24.8,11.2,30.1l237,108.9v270.2c0,12.6,10.2,22.6,22.7,22.6c12.5,0,22.6-10.1,22.6-22.6V498.2l0,0v-0.4c0-0.4-0.2-0.7-0.2-1c0-1.3-0.2-2.5-0.5-3.9l314.4-68L489.7,295l61.7-151.8l381.1,98.2L828.5,417.9z" />
  </g>
</svg>